<?xml version="1.0" standalone="no"?>
<!DOCTYPE svg PUBLIC "-//W3C//DTD SVG 20010904//EN"
 "http://www.w3.org/TR/2001/REC-SVG-20010904/DTD/svg10.dtd">
<svg version="1.0" xmlns="http://www.w3.org/2000/svg"
 width="152.000000pt" height="152.000000pt" viewBox="0 0 152.000000 152.000000"
 preserveAspectRatio="xMidYMid meet">
<metadata>
Created by potrace 1.11, written by Peter Selinger 2001-2013
</metadata>
<g transform="translate(0.000000,152.000000) scale(0.100000,-0.100000)"
fill="#000000" stroke="none">
<path d="M1263 1509 c-17 -5 -50 -30 -72 -55 -49 -56 -62 -116 -39 -180 l14
-41 -167 -168 -167 -167 -29 15 c-44 24 -92 37 -139 37 -45 0 -126 -23 -151
-43 -32 -25 -70 -63 -85 -85 l-16 -23 -108 37 c-60 20 -113 43 -119 52 -44 70
-106 82 -156 31 -27 -28 -31 -37 -26 -71 9 -70 62 -101 131 -78 28 9 45 7 112
-15 44 -14 87 -30 96 -35 10 -6 24 -10 31 -10 9 0 11 -12 9 -38 -9 -91 50
-197 137 -249 95 -57 218 -54 306 7 l44 30 138 -98 137 -98 0 -69 c1 -73 22
-119 70 -155 115 -86 283 -18 302 121 21 149 -124 261 -261 200 l-48 -21 -36
22 c-20 12 -38 25 -41 28 -3 3 -36 28 -75 55 -38 27 -72 52 -75 55 -3 3 -17
13 -32 23 -27 17 -27 17 -12 59 20 58 16 132 -13 197 l-23 53 167 168 166 168
33 -14 c90 -38 194 7 235 102 67 150 -74 300 -238 253z"/>
</g>
</svg>
