<?xml version="1.0" standalone="no"?>
<!DOCTYPE svg PUBLIC "-//W3C//DTD SVG 20010904//EN"
 "http://www.w3.org/TR/2001/REC-SVG-20010904/DTD/svg10.dtd">
<svg version="1.0" xmlns="http://www.w3.org/2000/svg"
 width="428.000000pt" height="428.000000pt" viewBox="0 0 428.000000 428.000000"
 preserveAspectRatio="xMidYMid meet">
<metadata>
Created by potrace 1.11, written by Peter Selinger 2001-2013
</metadata>
<g transform="translate(0.000000,428.000000) scale(0.100000,-0.100000)"
fill="#000000" stroke="none">
<path d="M3185 2718 c-48 -28 -27 20 -246 -557 -93 -245 -173 -455 -178 -466
-15 -32 -51 -135 -51 -145 0 -11 96 -11 136 1 44 13 67 43 98 124 15 39 33 86
41 105 8 19 48 125 89 235 41 110 118 314 170 453 53 139 96 255 96 257 0 10
-136 4 -155 -7z"/>
<path d="M2200 2686 c-79 -28 -144 -76 -180 -133 -40 -62 -52 -110 -49 -191 5
-151 79 -233 258 -287 141 -44 153 -49 188 -81 24 -23 33 -40 33 -64 0 -129
-138 -166 -297 -80 -108 58 -123 56 -178 -29 -25 -38 -45 -74 -45 -79 0 -18
112 -84 184 -110 52 -18 97 -26 167 -28 104 -4 147 5 224 43 122 60 187 178
180 326 -7 157 -76 226 -300 298 -157 51 -199 93 -169 168 31 79 143 92 263
32 95 -48 110 -42 166 64 l29 57 -24 20 c-109 88 -314 122 -450 74z"/>
<path d="M1059 2692 c-1 -10 -1 -1012 0 -1049 l1 -32 125 0 125 0 2 181 3 182
110 1 c165 2 267 33 350 107 98 85 131 279 71 408 -29 65 -47 86 -105 128 -88
64 -146 74 -428 78 -139 1 -253 0 -254 -4z m476 -203 c64 -29 98 -107 83 -189
-18 -97 -70 -130 -209 -132 l-94 -1 -3 173 -2 172 97 -5 c54 -2 112 -11 128
-18z"/>
<path d="M729 2437 c-35 -19 -127 -67 -204 -107 -77 -41 -180 -95 -230 -121
l-90 -47 0 -48 c0 -54 -29 -34 270 -189 94 -48 203 -105 243 -127 40 -21 76
-37 81 -33 5 3 9 41 9 85 0 60 -4 86 -17 100 -17 21 -92 65 -221 127 l-75 37
135 68 c74 38 144 79 156 92 17 19 21 38 22 110 1 47 -2 86 -7 86 -4 0 -37
-15 -72 -33z"/>
<path d="M3480 2382 c0 -55 5 -94 13 -104 13 -17 230 -135 282 -154 l30 -11
-38 -12 c-48 -16 -269 -137 -279 -154 -4 -6 -8 -53 -8 -103 l0 -91 63 32 c78
40 333 173 452 236 89 47 90 47 91 88 0 22 -2 44 -5 48 -7 10 -12 12 -176 98
-71 37 -182 95 -245 128 -167 88 -164 87 -172 87 -5 0 -8 -40 -8 -88z"/>
</g>
</svg>
